# xmcd
#
# Track frame offsets:
#	150
#	13072
#	23024
#	40793
#	55731
#	69151
#	86643
#	105122
#	118548
#	132875
#	146968
#	160437
#	176015
#	192783
#	201619
#	214426
#	230152
#	243409
#	256440
#	272564
#	286093
#	301050
#	318491
#	335455
#
# Disc length: 4614 seconds
#
# Revision: 1
# Processed by: cddbd v1.5.2PL0 Copyright (c) Steve Scherf et al.
# Submitted via: audiograbber 1.83.01
#
DISCID=5d120418
DTITLE=johnny cash - the singles, disc 2
DYEAR=1900
DGENRE=
TTITLE0=no need to worry
TTITLE1=i'll be loving you
TTITLE2=a front row seat to hear olf johnny sing
TTITLE3=the world needs a melody
TTITLE4=help me make it through the night
TTITLE5=praise the lord and pass the soup
TTITLE6=ballad of barbara
TTITLE7=pick the wildwood flower
TTITLE8=diamonds in the rough
TTITLE9=song to woody
TTITLE10=hey porter
TTITLE11=i still miss someone
TTITLE12=my ship will sail
TTITLE13=it's all over
TTITLE14=old time feeling
TTITLE15=song of the patriot
TTITLE16=i will dance with you
TTITLE17=the general lee
TTITLE18=crazy old soldier
TTITLE19=the chicken in black
TTITLE20=battle of nashville
TTITLE21=they killed him
TTITLE22=the three bells
TTITLE23=the human condiction
EXTD=
EXTT0=
EXTT1=
EXTT2=
EXTT3=
EXTT4=
EXTT5=
EXTT6=
EXTT7=
EXTT8=
EXTT9=
EXTT10=
EXTT11=
EXTT12=
EXTT13=
EXTT14=
EXTT15=
EXTT16=
EXTT17=
EXTT18=
EXTT19=
EXTT20=
EXTT21=
EXTT22=
EXTT23=
PLAYORDER=
